# xmcd
#
# Track frame offsets:
# 150
# 16068
# 29984
# 44879
# 58423
# 71917
# 86808
# 104186
# 120137
# 136899
# 149515
# 164479
# 178283
#
# Disc length: 2594 seconds
#
#
# Revision: 0
# Processed by: cddbd v1.5.1PL2 Copyright (c) Steve Scherf et al.
# Submitted via: FreeRIP 2.945 
#
DISCID=d30a200d
DTITLE=LOS CARDENALES - PASO A LA REINA
DYEAR=2003
DGENRE=Latin
TTITLE0=PASO A LA REINA
TTITLE1=ES DISTINTO
TTITLE2=NO VALES LA PENA
TTITLE3=ESA CHICA BAILA
TTITLE4=SEÑORA DE NADIE
TTITLE5=YO POR USTED
TTITLE6=MI AMANTE
TTITLE7=EL LLANTO DE UN BORRACHO
TTITLE8=NO DEVO DE AMARLA
TTITLE9=NO CONFUNDAS EL AMOR
TTITLE10=POR CULPA DE UNA
TTITLE11=SI TE PUDIERAS DAR
TTITLE12=NO SIEMPRE ES DE DOS
EXTD=
EXTT0=
EXTT1=
EXTT2=
EXTT3=
EXTT4=
EXTT5=
EXTT6=
EXTT7=
EXTT8=
EXTT9=
EXTT10=
EXTT11=
EXTT12=
PLAYORDER=
